<svg width="20" height="19" viewBox="0 0 20 19" fill="none" xmlns="http://www.w3.org/2000/svg">
<path fill-rule="evenodd" clip-rule="evenodd" d="M5.83337 6.66669C5.83337 5.28978 6.95647 4.16669 8.33337 4.16669H17.5C18.8769 4.16669 20 5.28978 20 6.66669V13.3334C20 14.7103 18.8769 15.8334 17.5 15.8334H16.6667V17.5C16.6667 17.8157 16.4884 18.1042 16.2061 18.2454C15.9237 18.3865 15.5859 18.3561 15.3334 18.1667L12.2223 15.8334H8.33337C6.95647 15.8334 5.83337 14.7103 5.83337 13.3334V6.66669ZM8.33337 5.83335C7.87694 5.83335 7.50004 6.21026 7.50004 6.66669V13.3334C7.50004 13.7898 7.87694 14.1667 8.33337 14.1667H12.5C12.6803 14.1667 12.8558 14.2252 13 14.3334L15 15.8334V15C15 14.5398 15.3731 14.1667 15.8334 14.1667H17.5C17.9565 14.1667 18.3334 13.7898 18.3334 13.3334V6.66669C18.3334 6.21026 17.9565 5.83335 17.5 5.83335H8.33337Z" fill="white"/>
<path fill-rule="evenodd" clip-rule="evenodd" d="M0 2.5C0 1.1231 1.1231 0 2.5 0H11.6667C13.0436 0 14.1667 1.1231 14.1667 2.5V5C14.1667 5.46024 13.7936 5.83333 13.3333 5.83333C12.8731 5.83333 12.5 5.46024 12.5 5V2.5C12.5 2.04357 12.1231 1.66667 11.6667 1.66667H2.5C2.04357 1.66667 1.66667 2.04357 1.66667 2.5V9.95833H3.33333C3.79357 9.95833 4.16667 10.3314 4.16667 10.7917V11.8356L6.24454 10.6148C6.64136 10.3817 7.15204 10.5144 7.38518 10.9112C7.61831 11.308 7.48561 11.8187 7.08879 12.0518L3.75546 14.0102C3.49779 14.1616 3.17878 14.1634 2.9194 14.0149C2.66003 13.8665 2.5 13.5905 2.5 13.2917V11.625H0.833333C0.373096 11.625 0 11.2519 0 10.7917V2.5Z" fill="white"/>
<path fill-rule="evenodd" clip-rule="evenodd" d="M10.8334 8.33333C10.8334 7.8731 11.2065 7.5 11.6667 7.5H15C15.4603 7.5 15.8334 7.8731 15.8334 8.33333C15.8334 8.79357 15.4603 9.16667 15 9.16667H11.6667C11.2065 9.16667 10.8334 8.79357 10.8334 8.33333Z" fill="white"/>
<path fill-rule="evenodd" clip-rule="evenodd" d="M10.8334 11.6666C10.8334 11.2064 11.2065 10.8333 11.6667 10.8333H13.3334C13.7936 10.8333 14.1667 11.2064 14.1667 11.6666C14.1667 12.1269 13.7936 12.5 13.3334 12.5H11.6667C11.2065 12.5 10.8334 12.1269 10.8334 11.6666Z" fill="white"/>
<path fill-rule="evenodd" clip-rule="evenodd" d="M11.6666 12.5H9.16663V10.8333H11.6666V12.5Z" fill="white"/>
<path fill-rule="evenodd" clip-rule="evenodd" d="M11.6666 9.16667H9.16663V7.5H11.6666V9.16667Z" fill="white"/>
</svg>
